<svg width="121" height="25" viewBox="0 0 121 25" fill="none" xmlns="http://www.w3.org/2000/svg">
<g clip-path="url(#clip0_94_732)">
<path d="M0 18.3505C0 17.0539 0.678724 16.1552 2.22809 16.1552C5.57021 16.188 4.94766 21.9361 9.58638 21.9361C11.3791 21.9361 12.526 20.9765 12.526 19.371C12.526 13.342 0.402553 17.1756 0.374468 8.11352C0.374468 4.18629 3.65106 1.43394 8.75319 1.43394C13.8881 1.43394 17.6609 4.15352 17.6281 6.96671C17.6281 8.32884 16.8557 9.22288 15.2783 9.22288C11.5383 9.22288 12.4932 3.44203 8.65957 3.44203C6.71234 3.44203 5.78553 4.64969 5.78553 6.1616C5.78553 12.7803 17.8762 8.91395 17.8762 17.5735C17.8762 21.6552 13.9489 23.9722 9.37106 23.9722C3.71192 23.9769 0 21.1029 0 18.3505Z" fill="white"/>
<path d="M34.7646 13.0659V20.3025C34.7646 21.7254 36.0004 22.0952 36.0004 22.9612V23.0876C36.0004 23.4574 35.7242 23.6727 35.3216 23.6727H30.8982C30.4348 23.6727 30.0931 23.3637 30.0931 22.9003V22.6195C29.1944 23.4854 27.837 23.9816 26.3204 23.9816C22.5804 23.9816 19.0229 21.3229 19.0229 16.2535C19.0229 11.6476 22.454 8.52077 26.3531 8.52077C27.9633 8.52077 29.1991 9.01694 30.0931 9.81736V9.63013C30.0931 8.95141 30.6829 8.6097 31.577 8.73141L35.3825 9.28843C35.8787 9.34928 36.1221 9.69098 36.1221 10.1544V10.2761C36.1267 10.9314 34.7646 11.362 34.7646 13.0659ZM29.5408 19.8672V13.8991C29.5408 11.582 28.1787 10.0327 26.7557 10.0327C25.2391 10.0327 24.4059 11.362 24.3123 13.8382C24.2187 16.4361 25.2391 22.3714 27.5608 22.465C28.614 22.4931 29.5408 21.5382 29.5408 19.8672Z" fill="white"/>
<path d="M37.049 23.0829V22.9612C37.049 22.0624 38.2566 21.7254 38.2566 20.3024V6.16627C38.2566 4.7152 37.049 4.31265 37.049 3.54031V3.41393C37.049 3.07223 37.3251 2.91776 37.7277 2.70244L42.3992 0.413502C43.2651 -0.0171368 43.8221 0.507119 43.8221 1.06414V20.2978C43.8221 21.7207 45.1843 22.0624 45.1843 22.9565V23.0782C45.1843 23.448 44.8753 23.668 44.4447 23.668H37.7604C37.3298 23.668 37.049 23.4527 37.049 23.0829Z" fill="white"/>
<path d="M61.4502 13.0659V20.3025C61.4502 21.7254 62.6859 22.0952 62.6859 22.9612V23.0876C62.6859 23.4574 62.4098 23.6727 62.0072 23.6727H57.5838C57.1204 23.6727 56.7787 23.3637 56.7787 22.9003V22.6195C55.88 23.4854 54.5225 23.9816 53.0059 23.9816C49.2659 23.9816 45.7085 21.3229 45.7085 16.2535C45.7085 11.6476 49.1396 8.52077 53.0387 8.52077C54.6489 8.52077 55.8847 9.01694 56.7787 9.81736V9.63013C56.7787 8.95141 57.3685 8.6097 58.2625 8.73141L62.0681 9.28843C62.5642 9.34928 62.8076 9.69098 62.8076 10.1544V10.2761C62.8123 10.9314 61.4502 11.362 61.4502 13.0659ZM56.2264 19.8672V13.8991C56.2264 11.582 54.8642 10.0327 53.4413 10.0327C51.9247 10.0327 51.0915 11.362 50.9979 13.8382C50.9042 16.4361 51.9247 22.3714 54.2464 22.465C55.2996 22.4931 56.2264 21.5382 56.2264 19.8672Z" fill="white"/>
<path d="M87.5975 13.2812C87.5975 19.9607 84.2881 23.9816 79.7103 23.9816C78.1656 23.9816 76.4009 23.4573 75.3524 21.571C74.332 23.0548 72.6937 23.9816 70.4047 23.9816C67.9613 23.9816 64.8064 22.7459 64.8064 17.2739V12.7288C64.8064 11.2778 63.5707 10.9033 63.5707 10.131V10.0093C63.5707 9.66756 63.8468 9.35862 64.2494 9.29777L68.8554 8.6799C69.7822 8.55819 70.3392 8.74075 70.3392 9.57862L70.2128 19.5348C70.18 20.9859 70.7371 21.9454 71.6639 21.9454C73.6111 21.9454 74.449 18.4816 74.449 15.9446V12.7288C74.449 11.2778 73.2132 10.9033 73.2132 10.131V10.0093C73.2132 9.66756 73.4941 9.35862 73.9247 9.29777L78.1609 8.64713C79.0596 8.49266 79.612 8.74075 79.612 9.57394L79.5183 19.4084C79.4856 20.9859 79.9209 21.9454 80.9694 21.9454C83.0711 21.9454 84.8966 18.4816 84.8966 15.9165C84.8966 13.3514 81.8681 13.3795 81.8681 10.6927C81.8681 9.45692 82.7669 8.53011 84.2507 8.53011C86.2962 8.51607 87.5975 10.0654 87.5975 13.2812Z" fill="white"/>
<path d="M104.355 13.0659V20.3025C104.355 21.7254 105.591 22.0952 105.591 22.9612V23.0876C105.591 23.4574 105.315 23.6727 104.912 23.6727H100.489C100.025 23.6727 99.6834 23.3637 99.6834 22.9003V22.6195C98.7847 23.4854 97.4273 23.9816 95.9107 23.9816C92.1707 23.9816 88.6132 21.3229 88.6132 16.2535C88.6132 11.6476 92.0443 8.52077 95.9434 8.52077C97.5536 8.52077 98.7894 9.01694 99.6834 9.81736V9.63013C99.6834 8.95141 100.273 8.6097 101.167 8.73141L104.973 9.28843C105.469 9.34928 105.712 9.69098 105.712 10.1544V10.2761C105.717 10.9314 104.355 11.362 104.355 13.0659ZM99.1311 19.8672V13.8991C99.1311 11.582 97.769 10.0327 96.346 10.0327C94.8294 10.0327 93.9962 11.362 93.9026 13.8382C93.809 16.4361 94.8294 22.3714 97.1511 22.465C98.2043 22.4931 99.1311 21.5382 99.1311 19.8672Z" fill="white"/>
<path d="M108.278 18.2569V10.9314H107.103C106.7 10.9314 106.391 10.6225 106.391 10.2199V9.54119C106.391 9.11055 106.667 8.8297 107.103 8.8297H107.692C109.579 8.8297 111.063 7.59396 111.465 5.70757C111.559 5.2114 111.896 4.90247 112.298 4.90247H113.01C113.506 4.90247 113.843 5.2114 113.843 5.70757V8.8297H117.026C117.429 8.8297 117.737 9.13864 117.737 9.54119V10.2199C117.737 10.6225 117.429 10.9314 117.026 10.9314H113.843V18.3552C113.843 19.4084 114.461 20.0263 115.233 20.0263C116.441 20.0263 116.932 19.4365 117.274 18.8795C117.705 18.3225 118.449 18.5097 118.449 19.0948C118.449 21.4774 116.689 23.9816 113.314 23.9816C110.257 23.9769 108.278 22.0016 108.278 18.2569Z" fill="white"/>
<path d="M120.289 5.59053C119.811 6.06798 119.24 6.3067 118.566 6.3067C117.892 6.3067 117.316 6.06798 116.834 5.59053C116.352 5.11309 116.113 4.53734 116.113 3.8633C116.113 3.18926 116.352 2.61351 116.834 2.14075C117.316 1.6633 117.892 1.42458 118.566 1.42458C119.24 1.42458 119.816 1.6633 120.289 2.14075C120.766 2.61819 121 3.18926 121 3.8633C121 4.53734 120.766 5.11309 120.289 5.59053ZM118.561 5.89011C119.09 5.89011 119.544 5.68883 119.919 5.29096C120.298 4.89309 120.485 4.41564 120.485 3.8633C120.485 3.31096 120.298 2.83351 119.919 2.44032C119.54 2.04245 119.09 1.84585 118.561 1.84585C118.028 1.84585 117.574 2.04245 117.194 2.44032C116.815 2.83351 116.628 3.31096 116.628 3.86798C116.628 4.42968 116.815 4.90713 117.19 5.30032C117.569 5.69351 118.028 5.89011 118.561 5.89011ZM118.589 5.22543C118.196 5.22543 117.869 5.08968 117.597 4.81351C117.326 4.53734 117.19 4.21436 117.19 3.84458C117.19 3.45606 117.321 3.13777 117.588 2.88032C117.855 2.62287 118.192 2.49649 118.599 2.50117C118.926 2.50585 119.207 2.58543 119.441 2.74458C119.675 2.90372 119.797 3.09564 119.797 3.31564C119.797 3.39521 119.764 3.46543 119.699 3.5216C119.633 3.57777 119.544 3.60585 119.437 3.60585C119.338 3.60585 119.259 3.57777 119.189 3.51692C119.118 3.46075 119.067 3.39053 119.029 3.30628C118.992 3.2267 118.954 3.14245 118.912 3.06287C118.875 2.97862 118.823 2.90841 118.758 2.85224C118.692 2.79606 118.613 2.7633 118.524 2.7633C118.355 2.7633 118.224 2.83819 118.14 2.9833C118.051 3.12841 118.009 3.32032 118.009 3.55904C118.009 3.8633 118.084 4.1067 118.238 4.29394C118.393 4.48117 118.613 4.57479 118.898 4.57479C119.198 4.57479 119.423 4.44841 119.577 4.19564C119.61 4.15351 119.657 4.13947 119.717 4.16755C119.778 4.19564 119.806 4.23309 119.802 4.29394C119.783 4.56543 119.661 4.78543 119.446 4.9633C119.226 5.13649 118.94 5.22543 118.589 5.22543Z" fill="white"/>
</g>
<defs>
<clipPath id="clip0_94_732">
<rect width="121" height="23.8677" fill="white" transform="translate(0 0.184113)"/>
</clipPath>
</defs>
</svg>
