<svg width="16" height="16" viewBox="0 0 16 16" fill="none" xmlns="http://www.w3.org/2000/svg">
<g clip-path="url(#clip0_4383_224)">
<path d="M15.5133 6.02C15.1333 5.58 14.58 5.33333 14 5.33333H13.94C13.6066 2.34 11.06 0 7.97998 0C4.89998 0 2.34665 2.34 2.01331 5.33333H1.97998C1.39998 5.33333 0.846648 5.58667 0.466648 6.02C0.0866479 6.46 -0.0800188 7.04 -1.88127e-05 7.61333L0.706648 12.56C0.986648 14.52 2.68665 15.9933 4.66665 15.9933H11.3133C13.2933 15.9933 14.9933 14.52 15.2733 12.56L15.98 7.61333C16.06 7.04 15.8933 6.46 15.5133 6.02ZM7.97998 1.33333C10.3266 1.33333 12.2733 3.07333 12.6 5.33333H3.35998C3.68665 3.07333 5.63331 1.33333 7.97998 1.33333ZM14.66 7.42667L13.9533 12.3733C13.7666 13.68 12.6333 14.66 11.3133 14.66H4.66665C3.34665 14.66 2.21331 13.6733 2.02665 12.3733L1.31998 7.42667C1.29331 7.23333 1.34665 7.04667 1.47331 6.89333C1.59998 6.74667 1.77998 6.66 1.97998 6.66H14C14.1933 6.66 14.3733 6.74 14.5 6.88667C14.6266 7.03333 14.6866 7.22667 14.6533 7.42L14.66 7.42667Z" fill="black"/>
</g>
<defs>
<clipPath id="clip0_4383_224">
<rect width="16" height="16" fill="white"/>
</clipPath>
</defs>
</svg>
