<svg width="16" height="16" viewBox="0 0 16 16" fill="none" xmlns="http://www.w3.org/2000/svg">
<g clip-path="url(#clip0_94_433)">
<path d="M15.5133 6.02C15.1333 5.58 14.58 5.33333 14 5.33333H13.94C13.6066 2.34 11.06 0 7.97995 0C4.89995 0 2.34662 2.34 2.01328 5.33333H1.97995C1.39995 5.33333 0.846617 5.58667 0.466617 6.02C0.0866174 6.46 -0.0800493 7.04 -4.93303e-05 7.61333L0.706617 12.56C0.986617 14.52 2.68662 15.9933 4.66662 15.9933H11.3133C13.2933 15.9933 14.9933 14.52 15.2733 12.56L15.9799 7.61333C16.0599 7.04 15.8933 6.46 15.5133 6.02ZM7.97995 1.33333C10.3266 1.33333 12.2733 3.07333 12.6 5.33333H3.35995C3.68662 3.07333 5.63328 1.33333 7.97995 1.33333ZM14.66 7.42667L13.9533 12.3733C13.7666 13.68 12.6333 14.66 11.3133 14.66H4.66662C3.34662 14.66 2.21328 13.6733 2.02662 12.3733L1.31995 7.42667C1.29328 7.23333 1.34662 7.04667 1.47328 6.89333C1.59995 6.74667 1.77995 6.66 1.97995 6.66H14C14.1933 6.66 14.3733 6.74 14.5 6.88667C14.6266 7.03333 14.6866 7.22667 14.6533 7.42L14.66 7.42667Z" fill="white"/>
<path d="M14.66 7.42667L13.9533 12.3733C13.7666 13.68 12.6333 14.66 11.3133 14.66H4.66662C3.34662 14.66 2.21328 13.6733 2.02662 12.3733L1.31995 7.42667C1.29328 7.23333 1.34662 7.04667 1.47328 6.89333C1.59995 6.74667 1.77995 6.66 1.97995 6.66H14C14.1933 6.66 14.3733 6.74 14.5 6.88667C14.6266 7.03333 14.6866 7.22667 14.6533 7.42L14.66 7.42667Z" fill="white"/>
</g>
<defs>
<clipPath id="clip0_94_433">
<rect width="16" height="16" fill="white"/>
</clipPath>
</defs>
</svg>
